<?xml version="1.0" encoding="UTF-8"?>
<svg width="26px" height="192px" viewBox="0 0 26 192" version="1.1" xmlns="http://www.w3.org/2000/svg" xmlns:xlink="http://www.w3.org/1999/xlink">
    <!-- Generator: Sketch 55.2 (78181) - https://sketchapp.com -->
    <title>lines</title>
    <desc>Created with Sketch.</desc>
    <g id="UI" stroke="none" stroke-width="1" fill="none" fill-rule="evenodd" stroke-linecap="square">
        <g id="C-1-Home" transform="translate(-19.000000, -88.000000)" stroke="#000000">
            <g id="scrubber" transform="translate(20.000000, 80.000000)">
                <g id="lines" transform="translate(0.000000, 7.500000)">
                    <path d="M0,11.5 L24,11.5" id="Line"></path>
                    <path d="M0,1.5 L24,1.5" id="Line"></path>
                    <path d="M0,21.5 L24,21.5" id="Line"></path>
                    <path d="M0,31.5 L24,31.5" id="Line"></path>
                    <path d="M0,41.5 L24,41.5" id="Line"></path>
                    <path d="M0,51.5 L24,51.5" id="Line"></path>
                    <path d="M0,61.5 L24,61.5" id="Line"></path>
                    <path d="M0,71.5 L24,71.5" id="Line"></path>
                    <path d="M0,81.5 L24,81.5" id="Line"></path>
                    <path d="M0,91.5 L24,91.5" id="Line"></path>
                    <path d="M0,101.5 L24,101.5" id="Line"></path>
                    <path d="M0,111.5 L24,111.5" id="Line"></path>
                    <path d="M0,121.5 L24,121.5" id="Line"></path>
                    <path d="M0,131.5 L24,131.5" id="Line"></path>
                    <path d="M0,141.5 L24,141.5" id="Line"></path>
                    <path d="M0,151.5 L24,151.5" id="Line"></path>
                    <path d="M0,161.5 L24,161.5" id="Line"></path>
                    <path d="M0,171.5 L24,171.5" id="Line"></path>
                    <path d="M0,181.5 L24,181.5" id="Line"></path>
                    <path d="M0,191.5 L24,191.5" id="Line"></path>
                </g>
            </g>
        </g>
    </g>
</svg>