<?xml version="1.0" encoding="UTF-8"?>
<svg width="26px" height="452px" viewBox="0 0 26 452" version="1.1" xmlns="http://www.w3.org/2000/svg" xmlns:xlink="http://www.w3.org/1999/xlink">
    <!-- Generator: Sketch 55.2 (78181) - https://sketchapp.com -->
    <title>lines</title>
    <desc>Created with Sketch.</desc>
    <g id="UI" stroke="none" stroke-width="1" fill="none" fill-rule="evenodd" stroke-linecap="square">
        <g id="A-1-Home" transform="translate(-39.000000, -526.000000)" stroke="#000000">
            <g id="section.left" transform="translate(40.000000, 154.000000)">
                <g id="scrubber" transform="translate(0.000000, 356.000000)">
                    <g id="lines" transform="translate(0.000000, 15.500000)">
                        <path d="M0,11.5 L24,11.5" id="Line"></path>
                        <path d="M0,1.5 L24,1.5" id="Line"></path>
                        <path d="M0,21.5 L24,21.5" id="Line"></path>
                        <path d="M0,31.5 L24,31.5" id="Line"></path>
                        <path d="M0,41.5 L24,41.5" id="Line"></path>
                        <path d="M0,51.5 L24,51.5" id="Line"></path>
                        <path d="M0,61.5 L24,61.5" id="Line"></path>
                        <path d="M0,71.5 L24,71.5" id="Line"></path>
                        <path d="M0,81.5 L24,81.5" id="Line"></path>
                        <path d="M0,91.5 L24,91.5" id="Line"></path>
                        <path d="M0,101.5 L24,101.5" id="Line"></path>
                        <path d="M0,111.5 L24,111.5" id="Line"></path>
                        <path d="M0,121.5 L24,121.5" id="Line"></path>
                        <path d="M0,131.5 L24,131.5" id="Line"></path>
                        <path d="M0,141.5 L24,141.5" id="Line"></path>
                        <path d="M0,151.5 L24,151.5" id="Line"></path>
                        <path d="M0,161.5 L24,161.5" id="Line"></path>
                        <path d="M0,171.5 L24,171.5" id="Line"></path>
                        <path d="M0,181.5 L24,181.5" id="Line"></path>
                        <path d="M0,191.5 L24,191.5" id="Line"></path>
                        <path d="M0,201.5 L24,201.5" id="Line"></path>
                        <path d="M0,211.5 L24,211.5" id="Line"></path>
                        <path d="M0,221.5 L24,221.5" id="Line"></path>
                        <path d="M0,231.5 L24,231.5" id="Line"></path>
                        <path d="M0,241.5 L24,241.5" id="Line"></path>
                        <path d="M0,251.5 L24,251.5" id="Line"></path>
                        <path d="M0,261.5 L24,261.5" id="Line"></path>
                        <path d="M0,271.5 L24,271.5" id="Line"></path>
                        <path d="M0,281.5 L24,281.5" id="Line"></path>
                        <path d="M0,291.5 L24,291.5" id="Line"></path>
                        <path d="M0,301.5 L24,301.5" id="Line"></path>
                        <path d="M0,311.5 L24,311.5" id="Line"></path>
                        <path d="M0,321.5 L24,321.5" id="Line"></path>
                        <path d="M0,331.5 L24,331.5" id="Line"></path>
                        <path d="M0,341.5 L24,341.5" id="Line"></path>
                        <path d="M0,351.5 L24,351.5" id="Line"></path>
                        <path d="M0,361.5 L24,361.5" id="Line"></path>
                        <path d="M0,371.5 L24,371.5" id="Line"></path>
                        <path d="M0,381.5 L24,381.5" id="Line"></path>
                        <path d="M0,391.5 L24,391.5" id="Line"></path>
                        <path d="M0,401.5 L24,401.5" id="Line"></path>
                        <path d="M0,411.5 L24,411.5" id="Line"></path>
                        <path d="M0,421.5 L24,421.5" id="Line"></path>
                        <path d="M0,431.5 L24,431.5" id="Line"></path>
                        <path d="M0,441.5 L24,441.5" id="Line"></path>
                        <path d="M0,451.5 L24,451.5" id="Line"></path>
                    </g>
                </g>
            </g>
        </g>
    </g>
</svg>