<?xml version="1.0" encoding="UTF-8"?>
<svg width="60px" height="60px" viewBox="0 0 60 60" version="1.1" xmlns="http://www.w3.org/2000/svg" xmlns:xlink="http://www.w3.org/1999/xlink">
    <!-- Generator: Sketch 55.2 (78181) - https://sketchapp.com -->
    <title>bacteria</title>
    <desc>Created with Sketch.</desc>
    <g id="bacteria" stroke="none" stroke-width="1" fill="none" fill-rule="evenodd">
        <g id="data.bacteria.v4" transform="translate(14.000000, 15.000000)" fill="#000000">
            <path d="M15.75,0 C21.1347763,-9.89167361e-16 25.5,4.36522369 25.5,9.75 L25.5,17.25 L6,17.25 L6,9.75 C6,4.36522369 10.3652237,9.89167361e-16 15.75,0 Z M19.125,10.5 C19.7463203,10.5 20.25,9.99632034 20.25,9.375 C20.25,8.75367966 19.7463203,8.25 19.125,8.25 C18.5036797,8.25 18,8.75367966 18,9.375 C18,9.99632034 18.5036797,10.5 19.125,10.5 Z M12.375,10.5 C12.9963203,10.5 13.5,9.99632034 13.5,9.375 C13.5,8.75367966 12.9963203,8.25 12.375,8.25 C11.7536797,8.25 11.25,8.75367966 11.25,9.375 C11.25,9.99632034 11.7536797,10.5 12.375,10.5 Z" id="Combined-Shape"></path>
            <path d="M14.75,17.25 L14.75,22.5 C14.75,26.0898509 11.8398509,29 8.25,29 L8.25,31 C12.9444204,31 16.75,27.1944204 16.75,22.5 L16.75,17.25 L14.75,17.25 Z" id="Path-7" fill-rule="nonzero"></path>
            <path d="M22.25,17.25 L22.25,22.5 C22.25,26.0898509 19.3398509,29 15.75,29 L15.75,31 C20.4444204,31 24.25,27.1944204 24.25,22.5 L24.25,17.25 L22.25,17.25 Z" id="Path-7" fill-rule="nonzero" transform="translate(20.000000, 24.125000) scale(-1, 1) translate(-20.000000, -24.125000) "></path>
            <path d="M30.5,17.25 L30.5,20.625 C30.5,22.7651034 28.7651034,24.5 26.625,24.5 C24.4848966,24.5 22.75,22.7651034 22.75,20.625 L22.75,20.25 L20.75,20.25 L20.75,20.625 C20.75,23.8696729 23.3803271,26.5 26.625,26.5 C29.8696729,26.5 32.5,23.8696729 32.5,20.625 L32.5,17.25 L30.5,17.25 Z" id="Path-7" fill-rule="nonzero" transform="translate(26.625000, 21.875000) scale(-1, 1) translate(-26.625000, -21.875000) "></path>
            <path d="M8.75,17.25 L8.75,20.625 C8.75,22.7651034 7.01510341,24.5 4.875,24.5 C2.73489659,24.5 1,22.7651034 1,20.625 L1,20.25 L-1,20.25 L-1,20.625 C-1,23.8696729 1.63032709,26.5 4.875,26.5 C8.11967291,26.5 10.75,23.8696729 10.75,20.625 L10.75,17.25 L8.75,17.25 Z" id="Path-7" fill-rule="nonzero"></path>
        </g>
    </g>
</svg>