<?xml version="1.0" encoding="UTF-8"?>
<svg width="20px" height="22px" viewBox="0 0 20 22" version="1.1" xmlns="http://www.w3.org/2000/svg" xmlns:xlink="http://www.w3.org/1999/xlink">
    <!-- Generator: Sketch 55.1 (78136) - https://sketchapp.com -->
    <title>Combined Shape</title>
    <desc>Created with Sketch.</desc>
    <g id="Wireframes-v1" stroke="none" stroke-width="1" fill="none" fill-rule="evenodd">
        <g id="data-visualization" transform="translate(-584.000000, -214.000000)" stroke="#68686C">
            <g id="Group" transform="translate(36.000000, 23.000000)">
                <g id="bacteria" transform="translate(4.000000, 10.000000)">
                    <path d="M544.5,202 L548.046918,199.339811 L551,202.292893 L554,199.292893 L557,202.292893 L559.953082,199.339811 L563.5,202 L563.5,191 C563.5,185.753295 559.246705,181.5 554,181.5 C548.753295,181.5 544.5,185.753295 544.5,191 L544.5,202 Z M551,192.5 C550.171573,192.5 549.5,191.828427 549.5,191 C549.5,190.171573 550.171573,189.5 551,189.5 C551.828427,189.5 552.5,190.171573 552.5,191 C552.5,191.828427 551.828427,192.5 551,192.5 Z M557,192.5 C556.171573,192.5 555.5,191.828427 555.5,191 C555.5,190.171573 556.171573,189.5 557,189.5 C557.828427,189.5 558.5,190.171573 558.5,191 C558.5,191.828427 557.828427,192.5 557,192.5 Z" id="Combined-Shape"></path>
                </g>
            </g>
        </g>
    </g>
</svg>