<?xml version="1.0" encoding="UTF-8"?>
<svg width="65px" height="65px" viewBox="0 0 65 65" version="1.1" xmlns="http://www.w3.org/2000/svg" xmlns:xlink="http://www.w3.org/1999/xlink">
    <!-- Generator: Sketch 55.2 (78181) - https://sketchapp.com -->
    <title>data.icon.bacteria.grey.v4</title>
    <desc>Created with Sketch.</desc>
    <g id="data.icon.bacteria.grey.v4" stroke="none" stroke-width="1" fill="none" fill-rule="evenodd">
        <g id="data.bacteria.v4" transform="translate(16.000000, 18.000000)" fill="#000000">
            <path d="M16.75,0 C22.1347763,-9.89167361e-16 26.5,4.36522369 26.5,9.75 L26.5,17.25 L7,17.25 L7,9.75 C7,4.36522369 11.3652237,9.89167361e-16 16.75,0 Z M20.125,10.5 C20.7463203,10.5 21.25,9.99632034 21.25,9.375 C21.25,8.75367966 20.7463203,8.25 20.125,8.25 C19.5036797,8.25 19,8.75367966 19,9.375 C19,9.99632034 19.5036797,10.5 20.125,10.5 Z M13.375,10.5 C13.9963203,10.5 14.5,9.99632034 14.5,9.375 C14.5,8.75367966 13.9963203,8.25 13.375,8.25 C12.7536797,8.25 12.25,8.75367966 12.25,9.375 C12.25,9.99632034 12.7536797,10.5 13.375,10.5 Z" id="Combined-Shape"></path>
            <path d="M15.75,17.25 L15.75,22.5 C15.75,26.0898509 12.8398509,29 9.25,29 L9.25,31 C13.9444204,31 17.75,27.1944204 17.75,22.5 L17.75,17.25 L15.75,17.25 Z" id="Path-7" fill-rule="nonzero"></path>
            <path d="M23.25,17.25 L23.25,22.5 C23.25,26.0898509 20.3398509,29 16.75,29 L16.75,31 C21.4444204,31 25.25,27.1944204 25.25,22.5 L25.25,17.25 L23.25,17.25 Z" id="Path-7" fill-rule="nonzero" transform="translate(21.000000, 24.125000) scale(-1, 1) translate(-21.000000, -24.125000) "></path>
            <path d="M31.5,17.25 L31.5,20.625 C31.5,22.7651034 29.7651034,24.5 27.625,24.5 C25.4848966,24.5 23.75,22.7651034 23.75,20.625 L23.75,20.25 L21.75,20.25 L21.75,20.625 C21.75,23.8696729 24.3803271,26.5 27.625,26.5 C30.8696729,26.5 33.5,23.8696729 33.5,20.625 L33.5,17.25 L31.5,17.25 Z" id="Path-7" fill-rule="nonzero" transform="translate(27.625000, 21.875000) scale(-1, 1) translate(-27.625000, -21.875000) "></path>
            <path d="M9.75,17.25 L9.75,20.625 C9.75,22.7651034 8.01510341,24.5 5.875,24.5 C3.73489659,24.5 2,22.7651034 2,20.625 L2,20.25 L0,20.25 L0,20.625 C0,23.8696729 2.63032709,26.5 5.875,26.5 C9.11967291,26.5 11.75,23.8696729 11.75,20.625 L11.75,17.25 L9.75,17.25 Z" id="Path-7" fill-rule="nonzero"></path>
        </g>
    </g>
</svg>