<?xml version="1.0" encoding="UTF-8"?>
<svg width="26px" height="10px" viewBox="0 0 26 10" version="1.1" xmlns="http://www.w3.org/2000/svg" xmlns:xlink="http://www.w3.org/1999/xlink">
    <!-- Generator: Sketch 55.1 (78136) - https://sketchapp.com -->
    <title>Line 4</title>
    <desc>Created with Sketch.</desc>
    <g id="Wireframes-v1" stroke="none" stroke-width="1" fill="none" fill-rule="evenodd">
        <g id="data-visualization" transform="translate(-234.000000, -77.000000)" fill="#515154" fill-rule="nonzero">
            <g id="Group" transform="translate(36.000000, 23.000000)">
                <path id="Line-4" d="M214.156854,59.1568542 L198.656854,59.1568542 C198.380712,59.1568542 198.156854,58.9329966 198.156854,58.6568542 C198.156854,58.3807119 198.380712,58.1568542 198.656854,58.1568542 L214.156854,58.1568542 L214.156854,54.6937141 C214.156854,54.3972146 214.397215,54.1568542 214.693714,54.1568542 C214.777059,54.1568542 214.859259,54.1762591 214.933805,54.2135321 L222.859968,58.1766134 C223.125165,58.309212 223.232657,58.6316892 223.100059,58.8968865 C223.04811,59.0007836 222.963865,59.085029 222.859968,59.1369775 L214.933805,63.1000588 C214.668608,63.2326575 214.346131,63.125165 214.213532,62.8599678 C214.176259,62.7854219 214.156854,62.7032216 214.156854,62.6198768 L214.156854,59.1568542 Z"></path>
            </g>
        </g>
    </g>
</svg>