<?xml version="1.0" encoding="UTF-8"?>
<svg width="65px" height="65px" viewBox="0 0 65 65" version="1.1" xmlns="http://www.w3.org/2000/svg" xmlns:xlink="http://www.w3.org/1999/xlink">
    <!-- Generator: Sketch 55.2 (78181) - https://sketchapp.com -->
    <title>data.icon.speed.grey.v4</title>
    <desc>Created with Sketch.</desc>
    <g id="data.icon.speed.grey.v4" stroke="none" strokeWidth="1" fill="none" fillRule="evenodd">
        <path d="M19,35 L19,30.9526316 C19,29.5428521 20.1428521,28.4 21.5526316,28.4 C22.9624111,28.4 24.1052632,29.5428521 24.1052632,30.9526316 L24.1052632,45.0526316 C24.1052632,47.7849877 26.3202754,50 29.0526316,50 C31.7849877,50 34,47.7849877 34,45.0526316 L34,20.9473684 C34,19.3195818 35.3195818,18 36.9473684,18 C38.5751551,18 39.8947368,19.3195818 39.8947368,20.9473684 L39.8947368,29.4473684 C39.8947368,31.9617174 41.9330194,34 44.4473684,34 C46.9617174,34 49,31.9617174 49,29.4473684 L49,22.6 L47,22.6 L47,29.4473684 C47,30.8571479 45.8571479,32 44.4473684,32 C43.0375889,32 41.8947368,30.8571479 41.8947368,29.4473684 L41.8947368,20.9473684 C41.8947368,18.2150123 39.6797246,16 36.9473684,16 C34.2150123,16 32,18.2150123 32,20.9473684 L32,45.0526316 C32,46.6804182 30.6804182,48 29.0526316,48 C27.4248449,48 26.1052632,46.6804182 26.1052632,45.0526316 L26.1052632,30.9526316 C26.1052632,28.4382826 24.0669806,26.4 21.5526316,26.4 C19.0382826,26.4 17,28.4382826 17,30.9526316 L17,35 L19,35 Z" id="data.speed" fill="#000000" fillRule="nonzero"></path>
    </g>
</svg>