<?xml version="1.0" encoding="UTF-8"?>
<svg width="60px" height="60px" viewBox="0 0 60 60" version="1.1" xmlns="http://www.w3.org/2000/svg" xmlns:xlink="http://www.w3.org/1999/xlink">
    <!-- Generator: Sketch 55.2 (78181) - https://sketchapp.com -->
    <title>speed</title>
    <desc>Created with Sketch.</desc>
    <g id="speed" stroke="none" stroke-width="1" fill="none" fill-rule="evenodd">
        <path d="M16,32 L16,27.9526316 C16,26.5428521 17.1428521,25.4 18.5526316,25.4 C19.9624111,25.4 21.1052632,26.5428521 21.1052632,27.9526316 L21.1052632,42.0526316 C21.1052632,44.7849877 23.3202754,47 26.0526316,47 C28.7849877,47 31,44.7849877 31,42.0526316 L31,17.9473684 C31,16.3195818 32.3195818,15 33.9473684,15 C35.5751551,15 36.8947368,16.3195818 36.8947368,17.9473684 L36.8947368,26.4473684 C36.8947368,28.9617174 38.9330194,31 41.4473684,31 C43.9617174,31 46,28.9617174 46,26.4473684 L46,19.6 L44,19.6 L44,26.4473684 C44,27.8571479 42.8571479,29 41.4473684,29 C40.0375889,29 38.8947368,27.8571479 38.8947368,26.4473684 L38.8947368,17.9473684 C38.8947368,15.2150123 36.6797246,13 33.9473684,13 C31.2150123,13 29,15.2150123 29,17.9473684 L29,42.0526316 C29,43.6804182 27.6804182,45 26.0526316,45 C24.4248449,45 23.1052632,43.6804182 23.1052632,42.0526316 L23.1052632,27.9526316 C23.1052632,25.4382826 21.0669806,23.4 18.5526316,23.4 C16.0382826,23.4 14,25.4382826 14,27.9526316 L14,32 L16,32 Z" id="data.speed" fill="#000000" fill-rule="nonzero"></path>
    </g>
</svg>